Coordinates
version=1
nRows=29
nColumns=24
inDegrees=yes

Units are S.I. units (second, meters, Newtons, ...)
Angles are in degrees.

endheader
time	pelvis_tilt	pelvis_list	pelvis_rotation	pelvis_tx	pelvis_ty	pelvis_tz	hip_flexion_r	hip_adduction_r	hip_rotation_r	knee_angle_r	ankle_angle_r	subtalar_angle_r	mtp_angle_r	hip_flexion_l	hip_adduction_l	hip_rotation_l	knee_angle_l	ankle_angle_l	subtalar_angle_l	mtp_angle_l	lumbar_extension	lumbar_bending	lumbar_rotation
      2.28000000	     -7.39315207	     -2.64570523	      3.68535122	      0.14026932	      1.23457884	     -0.80400862	     15.33078680	      9.33859443	      2.12226805	    -13.01765015	      4.27464798	     -2.26083269	      4.57848511	     30.87540715	      3.33909017	      1.03075179	    -64.48883252	     -7.43249247	      0.02067068	     24.29353593	     -5.50316458	      3.98602323	      4.53083734
      2.28500000	     -7.40890061	     -2.54468171	      3.62934491	      0.14547398	      1.23505726	     -0.80370202	     14.76057314	      9.29245758	      2.23062023	    -12.74097865	      4.49898561	     -2.19823797	      4.54899254	     31.40612561	      3.53163129	      0.97706279	    -63.80394724	     -6.66421513	     -0.11124885	     24.12592516	     -5.52037851	      3.86260571	      4.75988592
      2.29000000	     -7.38667771	     -2.44437551	      3.61453559	      0.15066675	      1.23555063	     -0.80343457	     14.11614166	      9.23522420	      2.32401008	    -12.40562301	      4.70321955	     -2.10873556	      4.46535767	     31.87785141	      3.74561768	      0.99245129	    -63.06289543	     -5.82210198	      0.10043494	     23.50107070	     -5.58089395	      3.73158595	      4.97190954
      2.29500000	     -7.36531261	     -2.32749656	      3.57419823	      0.15587269	      1.23603365	     -0.80314987	     13.48190537	      9.16691877	      2.47553909	    -12.09279460	      4.90667769	     -2.06246681	      4.41964900	     32.30787934	      3.95936546	      0.97749293	    -62.19727465	     -5.12560359	      0.00112556	     23.22317254	     -5.64083338	      3.58436759	      5.21171297
      2.30000000	     -7.36241194	     -2.22634796	      3.54891205	      0.16112211	      1.23644703	     -0.80289239	     12.86492657	      9.10922846	      2.59825055	    -11.77752837	      5.11250386	     -2.05570694	      4.36640921	     32.74303345	      4.15486092	      0.97142047	    -61.27469326	     -4.42619019	     -0.14611584	     22.89935832	     -5.67189021	      3.45323337	      5.39805872
      2.30500000	     -7.35238375	     -2.12487098	      3.54945296	      0.16637323	      1.23686142	     -0.80268337	     12.22054017	      9.04345575	      2.74980079	    -11.42885327	      5.25853839	     -2.07145289	      4.27548017	     33.13734789	      4.38280498	      1.04025528	    -60.26980531	     -3.78095655	     -0.21417825	     22.20048332	     -5.71058859	      3.32105697	      5.54928568
      2.31000000	     -7.33646639	     -2.02094021	      3.52932765	      0.17160285	      1.23723330	     -0.80247141	     11.59289179	      8.97850487	      2.92435678	    -11.12201635	      5.45078979	     -2.09106529	      4.22089591	     33.50125067	      4.59523148	      1.09786413	    -59.18125158	     -3.20920204	     -0.46618607	     21.83462964	     -5.75872404	      3.18697746	      5.76952288
      2.31500000	     -7.32242586	     -1.91886644	      3.52305065	      0.17687798	      1.23757988	     -0.80228550	     10.95255394	      8.91098800	      3.08931367	    -10.79319360	      5.61507020	     -2.14498931	      4.15251784	     33.83587655	      4.80779694	      1.17521513	    -58.01629716	     -2.68805662	     -0.77414000	     21.36370419	     -5.79750460	      3.05444445	      5.93583500
      2.32000000	     -7.30583938	     -1.82150631	      3.51145929	      0.18216459	      1.23787232	     -0.80211556	     10.31543164	      8.84867281	      3.24848014	    -10.47565255	      5.79710828	     -2.21759234	      4.08456870	     34.14622818	      5.00141043	      1.24628904	    -56.79121461	     -2.20374799	     -1.13747949	     20.90613637	     -5.83665728	      2.92933208	      6.11151391
      2.32500000	     -7.29720336	     -1.72443574	      3.50592669	      0.18744535	      1.23813707	     -0.80199025	      9.68928149	      8.78045239	      3.42277109	    -10.16001669	      5.95372386	     -2.30321957	      4.01790712	     34.43394950	      5.20670032	      1.36052776	    -55.48735159	     -1.77936914	     -1.54747735	     20.41344120	     -5.87237886	      2.81395176	      6.25782454
      2.33000000	     -7.29414663	     -1.63317095	      3.49860109	      0.19273718	      1.23835044	     -0.80188442	      9.07506408	      8.71720114	      3.59831469	     -9.85584626	      6.10785716	     -2.40108334	      3.94990775	     34.70112759	      5.40133978	      1.49229919	    -54.11970042	     -1.39025246	     -1.99913149	     19.90148388	     -5.89620598	      2.70762085	      6.39317010
      2.33500000	     -7.29606064	     -1.54511492	      3.49379756	      0.19803162	      1.23852596	     -0.80178503	      8.46903128	      8.65619029	      3.76904604	     -9.55395637	      6.24460738	     -2.51070470	      3.87670790	     34.94479466	      5.58762438	      1.64592409	    -52.68425782	     -1.06162126	     -2.47845180	     19.36032914	     -5.91601726	      2.59954298	      6.51000999
      2.34000000	     -7.30075213	     -1.46728698	      3.48264135	      0.20330577	      1.23864126	     -0.80171984	      7.88480820	      8.60549572	      3.94852195	     -9.28327403	      6.39889667	     -2.62658151	      3.80630802	     35.16432162	      5.76051579	      1.82742525	    -51.18777322	     -0.73141592	     -2.96817997	     18.86244707	     -5.93724251	      2.51196292	      6.62213232
      2.34500000	     -7.31122050	     -1.39456050	      3.47165023	      0.20858699	      1.23871282	     -0.80167543	      7.30840178	      8.55731014	      4.11179831	     -9.01147925	      6.53512790	     -2.75066528	      3.73502044	     35.35996315	      5.92052515	      2.02201479	    -49.62862929	     -0.45201345	     -3.47375363	     18.34763160	     -5.95206747	      2.43385782	      6.71273445
      2.35000000	     -7.33558980	     -1.32826273	      3.45801546	      0.21385194	      1.23872734	     -0.80165888	      6.76108787	      8.51344594	      4.26667023	     -8.76062104	      6.67483210	     -2.87259249	      3.66468842	     35.53945760	      6.06898256	      2.24211668	    -48.00379964	     -0.18482971	     -3.97458719	     17.84243684	     -5.95791349	      2.36997003	      6.78706423
      2.35500000	     -7.38104473	     -1.27157299	      3.45098173	      0.21915838	      1.23868730	     -0.80166996	      6.22876460	      8.47456137	      4.38986645	     -8.49282563	      6.78438832	     -2.99417278	      3.59166939	     35.70773792	      6.20452143	      2.48207151	    -46.32001154	      0.02428129	     -4.47722367	     17.28874508	     -5.92888128	      2.31530586	      6.85522804
      2.36000000	     -7.42366075	     -1.22799098	      3.43358035	      0.22440166	      1.23858517	     -0.80169791	      5.72524692	      8.45104989	      4.52335784	     -8.27476348	      6.91523484	     -3.10500141	      3.52874554	     35.84101729	      6.31920992	      2.75792794	    -44.57706331	      0.25454827	     -4.94134396	     16.77164455	     -5.91886495	      2.28460799	      6.90588790
      2.36500000	     -7.49122847	     -1.19874967	      3.42016908	      0.22963999	      1.23841897	     -0.80176645	      5.26612049	      8.43858960	      4.62857627	     -8.08306099	      7.04312237	     -3.20775883	      3.47453358	     35.96252001	      6.42339007	      3.07804767	    -42.77178885	      0.46686041	     -5.41763663	     16.19416816	     -5.88538552	      2.27565874	      6.91535964
      2.37000000	     -7.53271228	     -1.16134994	      3.38391039	      0.23484728	      1.23824233	     -0.80179437	      4.79631402	      8.42406669	      4.75487154	     -7.92263869	      7.20964469	     -3.30665510	      3.42532156	     36.00258356	      6.49768021	      3.38553911	    -40.88082055	      0.68853826	     -5.77797350	     15.78600201	     -5.88779607	      2.25497544	      6.95769005
      2.37500000	     -7.59784527	     -1.14327395	      3.36213258	      0.24006168	      1.23799804	     -0.80187374	      4.35000704	      8.42306283	      4.84093725	     -7.74995322	      7.33578965	     -3.39316167	      3.38438520	     36.02329184	      6.56487596	      3.75540067	    -38.92858747	      0.85853515	     -6.18376512	     15.29657643	     -5.86344604	      2.26097086	      6.95840263
      2.38000000	     -7.67588095	     -1.13667974	      3.33627678	      0.24527977	      1.23769682	     -0.80196366	      3.93210573	      8.43341441	      4.91018375	     -7.60103203	      7.46984013	     -3.46216941	      3.35847244	     36.00908888	      6.60800731	      4.14945633	    -36.91374186	      1.01176745	     -6.55826385	     14.78485992	     -5.82447821	      2.27817496	      6.94987138
      2.38500000	     -7.77795104	     -1.15015302	      3.31656545	      0.25053061	      1.23732238	     -0.80209340	      3.53117007	      8.45816912	      4.94957378	     -7.43056051	      7.57822619	     -3.47349530	      3.35346568	     35.97829483	      6.63163293	      4.58477508	    -34.85528983	      1.12950050	     -6.94156700	     14.20478434	     -5.75014236	      2.32257542	      6.94074856
      2.39000000	     -7.86526309	     -1.17026111	      3.27685806	      0.25569630	      1.23690734	     -0.80218073	      3.17073056	      8.50138824	      5.00461992	     -7.35791576	      7.74168452	     -3.53052682	      3.35104623	     35.89042340	      6.61573847	      5.02523167	    -32.74241800	      1.26645608	     -7.19921866	     13.72647041	     -5.71954734	      2.37153611	      6.89923435
      2.39500000	     -7.96908769	     -1.20995271	      3.24158271	      0.26090430	      1.23643218	     -0.80229249	      2.81781905	      8.56116413	      5.04094516	     -7.26639660	      7.87716403	     -3.56540180	      3.36158305	     35.77629977	      6.57320956	      5.49322970	    -30.58591826	      1.36667123	     -7.46701081	     13.21366239	     -5.65617140	      2.43810253	      6.85890347
      2.40000000	     -8.08140373	     -1.26921908	      3.20706374	      0.26612144	      1.23589570	     -0.80240421	      2.47768832	      8.64196158	      5.06840348	     -7.17838149	      8.00215161	     -3.56897150	      3.39344482	     35.63896923	      6.49914995	      5.97831806	    -28.40607287	      1.42298708	     -7.73054064	     12.66487546	     -5.58430339	      2.52599968	      6.80926666
      2.40500000	     -8.20160218	     -1.34223369	      3.16024492	      0.27133030	      1.23530592	     -0.80250827	      2.16319859	      8.73838396	      5.10112848	     -7.11833822	      8.13180890	     -3.58183053	      3.43544057	     35.47944205	      6.38901623	      6.45981655	    -26.20469571	      1.45835353	     -7.93442777	     12.14098704	     -5.50833840	      2.62631534	      6.75765615
      2.41000000	     -8.32725955	     -1.43525003	      3.10868634	      0.27656359	      1.23465578	     -0.80260098	      1.86027641	      8.85919015	      5.13812757	     -7.06975604	      8.25256137	     -3.58744615	      3.49692270	     35.30122953	      6.24178126	      6.93305173	    -24.00114647	      1.46060838	     -8.10518927	     11.62819473	     -5.42044134	      2.74272941	      6.70394375
      2.41500000	     -8.46099233	     -1.54950402	      3.04589414	      0.28181414	      1.23395315	     -0.80267554	      1.57811472	      9.00505352	      5.18729279	     -7.04469441	      8.36686317	     -3.59955861	      3.56691761	     35.11669192	      6.05260931	      7.37993870	    -21.81383591	      1.42970045	     -8.21759233	     11.15473593	     -5.32344442	      2.87604546	      6.64812482
      2.42000000	     -8.59476422	     -1.68119162	      2.97480912	      0.28709208	      1.23319423	     -0.80273747	      1.30268613	      9.17142433	      5.24936897	     -7.03670058	      8.47661467	     -3.61454348	      3.64872114	     34.92367136	      5.82892868	      7.78891666	    -19.66049262	      1.37275523	     -8.26466073	     10.72291372	     -5.21857185	      3.02396277	      6.60095720
